<?xml version="1.0" encoding="UTF-8" standalone="no"?>
<!-- Created with Inkscape (http://www.inkscape.org/) -->

<svg
   xmlns:dc="http://purl.org/dc/elements/1.1/"
   xmlns:cc="http://creativecommons.org/ns#"
   xmlns:rdf="http://www.w3.org/1999/02/22-rdf-syntax-ns#"
   xmlns:svg="http://www.w3.org/2000/svg"
   xmlns="http://www.w3.org/2000/svg"
   xmlns:sodipodi="http://sodipodi.sourceforge.net/DTD/sodipodi-0.dtd"
   xmlns:inkscape="http://www.inkscape.org/namespaces/inkscape"
   width="255.1181"
   height="708.66138"
   id="svg3016"
   version="1.1"
   inkscape:version="0.48.1 r9760"
   sodipodi:docname="bon.svg">
  <defs
     id="defs3018" />
  <sodipodi:namedview
     id="base"
     pagecolor="#ffffff"
     bordercolor="#666666"
     borderopacity="1.0"
     inkscape:pageopacity="0.0"
     inkscape:pageshadow="2"
     inkscape:zoom="1.979899"
     inkscape:cx="115.89587"
     inkscape:cy="307.55843"
     inkscape:document-units="px"
     inkscape:current-layer="layer1"
     showgrid="false"
     units="mm"
     inkscape:window-width="1600"
     inkscape:window-height="823"
     inkscape:window-x="0"
     inkscape:window-y="24"
     inkscape:window-maximized="1" />
  <metadata
     id="metadata3021">
    <rdf:RDF>
      <cc:Work
         rdf:about="">
        <dc:format>image/svg+xml</dc:format>
        <dc:type
           rdf:resource="http://purl.org/dc/dcmitype/StillImage" />
        <dc:title></dc:title>
      </cc:Work>
    </rdf:RDF>
  </metadata>
  <g
     inkscape:label="Layer 1"
     inkscape:groupmode="layer"
     id="layer1"
     transform="translate(0,-343.70085)">
    <g
       transform="matrix(1.0806041,0,0,1.0806041,4.7053373,340.04959)"
       id="g3024">
      <g
         id="text2987"
         style="font-size:24.52983093px;font-style:normal;font-weight:normal;line-height:125%;letter-spacing:0px;word-spacing:0px;fill:#000000;fill-opacity:1;stroke:none;font-family:Sans">
        <path
           inkscape:connector-curvature="0"
           id="path2991"
           style="font-size:19.62386322px;font-variant:normal;font-weight:bold;font-stretch:normal;font-family:Miso;-inkscape-font-specification:Miso Bold"
           d="m 139.61448,75.809034 0,-1.098922 c -0.0233,-0.935791 -0.34465,-1.713376 -0.96401,-2.332757 -0.61938,-0.619358 -1.39696,-0.940694 -2.33276,-0.96401 l -2.35483,0 c -0.27105,0.0061 -0.49427,0.0969 -0.66966,0.272278 -0.17538,0.175398 -0.26614,0.398616 -0.27227,0.669655 l 0,11.3032 c 0.006,0.271051 0.0969,0.49427 0.27227,0.669656 0.17539,0.175385 0.39861,0.266144 0.66966,0.272277 0.27105,-0.0061 0.49427,-0.09689 0.66966,-0.272277 0.17538,-0.175386 0.26614,-0.398605 0.27227,-0.669656 l 0,-4.552678 1.05968,0 1.82499,4.886279 c 0.11447,0.248566 0.28291,0.423543 0.50531,0.524932 0.2224,0.101388 0.45951,0.109565 0.71136,0.02453 0.25101,-0.0973 0.43089,-0.260831 0.53965,-0.490591 0.10874,-0.229759 0.11201,-0.471783 0.01,-0.726073 l -1.70726,-4.591925 c 0.54578,-0.282493 0.97505,-0.679053 1.2878,-1.189682 0.31275,-0.510615 0.47219,-1.088693 0.47833,-1.734236 z m -4.70967,1.4129 0,-3.924722 1.4129,0 c 0.40228,0.0098 0.73588,0.147188 1.00081,0.412095 0.26491,0.264929 0.40228,0.59853 0.41209,1.000805 l 0,1.098922 c -0.01,0.402292 -0.14718,0.735893 -0.41209,1.000804 -0.26493,0.264926 -0.59853,0.402291 -1.00081,0.412096 z" />
        <path
           inkscape:connector-curvature="0"
           id="path2993"
           style="font-size:19.62386322px;font-variant:normal;font-weight:bold;font-stretch:normal;font-family:Miso;-inkscape-font-specification:Miso Bold"
           d="m 144.38343,78.772199 -1.0793,0 c -0.80539,0.02045 -1.47586,0.298447 -2.01142,0.834003 -0.53556,0.535565 -0.81356,1.206038 -0.834,2.011421 0.0204,0.805387 0.29844,1.47586 0.834,2.011419 0.53556,0.535561 1.20603,0.813562 2.01142,0.834004 l 1.96236,0 c 0.25142,-0.0061 0.45992,-0.09199 0.6255,-0.25756 0.16557,-0.165574 0.25143,-0.374075 0.25756,-0.625502 l 0,-5.847836 c -0.005,-0.586249 -0.16149,-1.106274 -0.46851,-1.560078 -0.30703,-0.453787 -0.73303,-0.7972 -1.27799,-1.030239 -0.53147,-0.222392 -1.06785,-0.277992 -1.60913,-0.166801 -0.54129,0.11121 -1.0188,0.369587 -1.43253,0.775133 -0.17988,0.179891 -0.27146,0.389209 -0.27473,0.627956 0.003,0.238761 0.0949,0.44808 0.27473,0.627955 0.17334,0.173349 0.37612,0.258384 0.60833,0.255107 0.12674,4.16e-4 0.24121,-0.02003 0.34342,-0.06132 0.1022,-0.04128 0.19705,-0.105879 0.28454,-0.193783 0.15167,-0.156981 0.3291,-0.255099 0.53229,-0.294354 0.20318,-0.03924 0.40514,-0.01962 0.60588,0.05887 0.19869,0.083 0.35567,0.21137 0.47097,0.385114 0.11528,0.173757 0.17415,0.365905 0.17661,0.576443 z m -1.0793,1.766125 1.0793,0 0,2.158597 -1.0793,0 c -0.31112,-0.0069 -0.56704,-0.11079 -0.76777,-0.311525 -0.20074,-0.200731 -0.30458,-0.456655 -0.31153,-0.767773 0.007,-0.311114 0.11079,-0.567038 0.31153,-0.767774 0.20073,-0.20073 0.45665,-0.304572 0.76777,-0.311525 z" />
        <path
           inkscape:connector-curvature="0"
           id="path2995"
           style="font-size:19.62386322px;font-variant:normal;font-weight:bold;font-stretch:normal;font-family:Miso;-inkscape-font-specification:Miso Bold"
           d="m 150.8311,84.463046 1.96236,0 c 0.25142,-0.0061 0.45992,-0.09199 0.6255,-0.25756 0.16557,-0.165574 0.25142,-0.374075 0.25756,-0.625502 l 0,-7.77095 c -0.006,-0.251419 -0.092,-0.45992 -0.25756,-0.625503 -0.16558,-0.165565 -0.37408,-0.251418 -0.6255,-0.25756 -0.25143,0.0061 -0.45993,0.09199 -0.6255,0.25756 -0.16558,0.165583 -0.25143,0.374084 -0.25756,0.625503 l 0,6.887887 -1.0793,0 c -0.31112,-0.0069 -0.56704,-0.11079 -0.76777,-0.311525 -0.20074,-0.200731 -0.30458,-0.456655 -0.31153,-0.767773 l 0,-5.808589 c -0.006,-0.251419 -0.092,-0.45992 -0.25756,-0.625503 -0.16558,-0.165565 -0.37408,-0.251418 -0.6255,-0.25756 -0.25143,0.0061 -0.45993,0.09199 -0.6255,0.25756 -0.16558,0.165583 -0.25143,0.374084 -0.25756,0.625503 l 0,5.808589 c 0.0204,0.805387 0.29844,1.47586 0.834,2.011419 0.53556,0.535561 1.20603,0.813562 2.01142,0.834004 z" />
        <path
           inkscape:connector-curvature="0"
           id="path2997"
           style="font-size:19.62386322px;font-variant:normal;font-weight:bold;font-stretch:normal;font-family:Miso;-inkscape-font-specification:Miso Bold"
           d="m 157.61269,76.770591 2.1586,0 0,6.887887 c 0.006,0.251428 0.092,0.459928 0.25756,0.625502 0.16556,0.165574 0.37407,0.251428 0.6255,0.257561 0.24283,-0.0061 0.44888,-0.09199 0.61814,-0.257561 0.16925,-0.165574 0.25756,-0.374075 0.26492,-0.625502 l 0,-6.887887 1.0793,0 c 0.31111,0.007 0.56703,0.110799 0.76777,0.311525 0.20073,0.20074 0.30457,0.456664 0.31153,0.767773 l 0,5.808589 c 0.006,0.251428 0.092,0.459928 0.25756,0.625502 0.16556,0.165574 0.37406,0.251428 0.6255,0.257561 0.24283,-0.0061 0.44888,-0.09199 0.61814,-0.257561 0.16925,-0.165574 0.25755,-0.374075 0.26492,-0.625502 l 0,-5.808589 c -0.0217,-0.805378 -0.30213,-1.475851 -0.84136,-2.01142 -0.53925,-0.535552 -1.20727,-0.813553 -2.00406,-0.834003 l -5.88708,0 c -0.25143,0.0061 -0.45993,0.092 -0.62551,0.25756 -0.16557,0.165583 -0.25142,0.374083 -0.25756,0.625502 l 0,7.77095 c 0.006,0.251428 0.092,0.459928 0.25756,0.625502 0.16558,0.165574 0.37408,0.251428 0.62551,0.257561 0.24284,-0.0061 0.44888,-0.09199 0.61814,-0.257561 0.16925,-0.165574 0.25756,-0.374075 0.26492,-0.625502 z" />
        <path
           inkscape:connector-curvature="0"
           id="path2999"
           style="font-size:19.62386322px;font-variant:normal;font-weight:bold;font-stretch:normal;font-family:Miso;-inkscape-font-specification:Miso Bold"
           d="m 166.85157,72.355278 c 0.006,0.271063 0.0969,0.494281 0.27228,0.669656 0.17539,0.175397 0.39861,0.266156 0.66966,0.272278 l 3.29676,0 c -0.22199,0.555194 -0.55805,1.363032 -1.00816,2.423515 -0.45012,1.0605 -0.91863,2.162692 -1.40554,3.306579 -0.55273,1.295162 -1.1349,2.688437 -1.7465,4.179829 -0.029,0.04988 -0.0495,0.107113 -0.0613,0.171707 -0.0119,0.06459 -0.0176,0.131642 -0.0172,0.201142 0.003,0.176613 0.0556,0.353225 0.15699,0.529837 0.19297,0.27473 0.45462,0.412096 0.78495,0.412096 l 4.70966,0 c 0.27105,-0.0061 0.49427,-0.09689 0.66966,-0.272278 0.17538,-0.175385 0.26614,-0.398604 0.27228,-0.669655 -0.006,-0.271051 -0.0969,-0.494269 -0.27228,-0.669656 -0.17539,-0.175385 -0.39861,-0.266144 -0.66966,-0.272278 l -3.29676,0 c 0.22975,-0.547005 0.56499,-1.351573 1.00571,-2.413704 0.44071,-1.062123 0.9035,-2.161044 1.38837,-3.296766 0.52983,-1.291879 1.11854,-2.691695 1.76612,-4.199453 0.029,-0.04986 0.0495,-0.107101 0.0613,-0.171707 0.0118,-0.06458 0.0176,-0.131629 0.0172,-0.201142 -0.003,-0.1766 -0.0556,-0.353212 -0.15699,-0.529837 -0.19297,-0.274718 -0.45462,-0.412083 -0.78495,-0.412096 l -4.70966,0 c -0.27105,0.0061 -0.49427,0.0969 -0.66966,0.272278 -0.17538,0.175398 -0.26614,0.398616 -0.27228,0.669655 z" />
        <path
           inkscape:connector-curvature="0"
           id="path3001"
           style="font-size:19.62386322px;font-variant:normal;font-weight:bold;font-stretch:normal;font-family:Miso;-inkscape-font-specification:Miso Bold"
           d="m 176.54113,84.325681 c 0.54864,0.2224 1.09483,0.278 1.63858,0.1668 0.54373,-0.111201 1.03105,-0.369578 1.46195,-0.775132 0.17334,-0.179883 0.25838,-0.389201 0.25511,-0.627956 0.003,-0.238752 -0.0818,-0.44807 -0.25511,-0.627955 -0.17661,-0.179882 -0.39247,-0.271458 -0.64757,-0.274731 -0.23222,0.0033 -0.435,0.09485 -0.60834,0.274731 -0.16067,0.15699 -0.34464,0.255108 -0.55191,0.294354 -0.20728,0.03925 -0.41578,0.01963 -0.6255,-0.05887 -0.2081,-0.09076 -0.37081,-0.223217 -0.48814,-0.397378 -0.11734,-0.174158 -0.17702,-0.3753 -0.17907,-0.603426 l 0,-1.079299 3.04166,0 c 0.25143,-0.0061 0.45993,-0.09198 0.62551,-0.25756 0.16556,-0.16557 0.25142,-0.374071 0.25756,-0.625502 l 0,-1.962361 c -0.0204,-0.805379 -0.29845,-1.475851 -0.83401,-2.01142 -0.53556,-0.535553 -1.20604,-0.813554 -2.01142,-0.834004 -0.80539,0.02045 -1.47586,0.298452 -2.01142,0.834004 -0.53556,0.535568 -0.81356,1.206041 -0.834,2.01142 l 0,3.924722 c 0.005,0.596478 0.16189,1.125497 0.47097,1.58706 0.30907,0.461564 0.74079,0.809065 1.29515,1.042504 z m 1.0793,-7.633585 c 0.31112,0.007 0.56704,0.1108 0.76778,0.311525 0.20073,0.20074 0.30457,0.456665 0.31152,0.767774 l 0,1.079298 -2.1586,0 0,-1.079298 c 0.007,-0.311109 0.11079,-0.567034 0.31153,-0.767774 0.20073,-0.200726 0.45665,-0.304567 0.76777,-0.311525 z" />
        <path
           inkscape:connector-curvature="0"
           id="path3003"
           style="font-size:19.62386322px;font-variant:normal;font-weight:bold;font-stretch:normal;font-family:Miso;-inkscape-font-specification:Miso Bold"
           d="m 183.09919,73.944791 c 0.31112,-0.0069 0.56704,-0.110781 0.76778,-0.311525 0.20073,-0.200722 0.30457,-0.456647 0.31152,-0.767774 -0.007,-0.311104 -0.11079,-0.567028 -0.31152,-0.767774 -0.20074,-0.200721 -0.45666,-0.304562 -0.76778,-0.311524 -0.31111,0.007 -0.56704,0.110804 -0.76777,0.311525 -0.20073,0.200745 -0.30458,0.456669 -0.31152,0.767773 0.007,0.311127 0.11079,0.567052 0.31152,0.767774 0.20073,0.200743 0.45666,0.304585 0.76777,0.311525 z m 0.88307,9.713687 0,-7.849444 c -0.006,-0.251419 -0.092,-0.45992 -0.25756,-0.625503 -0.16558,-0.165565 -0.37408,-0.251418 -0.62551,-0.25756 -0.25142,0.0061 -0.45993,0.09199 -0.6255,0.25756 -0.16557,0.165583 -0.25143,0.374084 -0.25756,0.625503 l 0,7.849444 c 0.006,0.251428 0.092,0.459928 0.25756,0.625502 0.16557,0.165574 0.37408,0.251428 0.6255,0.257561 0.25143,-0.0061 0.45993,-0.09199 0.62551,-0.257561 0.16557,-0.165574 0.25142,-0.374075 0.25756,-0.625502 z" />
        <path
           inkscape:connector-curvature="0"
           id="path3005"
           style="font-size:19.62386322px;font-variant:normal;font-weight:bold;font-stretch:normal;font-family:Miso;-inkscape-font-specification:Miso Bold"
           d="m 186.1452,76.770591 0.68682,0 0,4.925526 c 0.0204,0.805387 0.29844,1.47586 0.83401,2.01142 0.53556,0.535561 1.20603,0.813562 2.01142,0.834004 0.25142,-0.0061 0.45992,-0.09199 0.6255,-0.257561 0.16557,-0.165574 0.25142,-0.374075 0.25756,-0.625502 -0.006,-0.251427 -0.092,-0.459927 -0.25756,-0.625503 -0.16558,-0.165573 -0.37408,-0.251426 -0.6255,-0.257559 -0.31112,-0.0069 -0.56705,-0.11079 -0.76778,-0.311525 -0.20073,-0.200731 -0.30457,-0.456656 -0.31152,-0.767774 l 0,-4.925526 1.0793,0 c 0.25142,-0.0061 0.45992,-0.09198 0.6255,-0.257561 0.16557,-0.165566 0.25142,-0.374067 0.25756,-0.625502 -0.006,-0.251419 -0.092,-0.459919 -0.25756,-0.625502 -0.16558,-0.165566 -0.37408,-0.251419 -0.6255,-0.25756 l -1.0793,0 0,-3.120154 c -0.006,-0.251415 -0.092,-0.459916 -0.25756,-0.625503 -0.16558,-0.165561 -0.37408,-0.251414 -0.6255,-0.25756 -0.25143,0.0061 -0.45993,0.092 -0.62551,0.25756 -0.16557,0.165587 -0.25142,0.374088 -0.25756,0.625503 l 0,3.120154 -0.68682,0 c -0.25143,0.0061 -0.45993,0.092 -0.6255,0.25756 -0.16558,0.165583 -0.25143,0.374083 -0.25756,0.625502 0.006,0.251436 0.092,0.459936 0.25756,0.625503 0.16557,0.165581 0.37407,0.251435 0.6255,0.25756 z" />
        <path
           inkscape:connector-curvature="0"
           id="path3007"
           style="font-size:19.62386322px;font-variant:normal;font-weight:bold;font-stretch:normal;font-family:Miso;-inkscape-font-specification:Miso Bold"
           d="m 192.83447,84.521917 3.92472,0 c 0.27105,-0.0061 0.49426,-0.09689 0.66966,-0.272278 0.17538,-0.175385 0.26614,-0.398604 0.27227,-0.669655 -0.006,-0.271051 -0.0969,-0.494269 -0.27227,-0.669656 -0.17539,-0.175385 -0.39861,-0.266144 -0.66966,-0.272278 l -2.98279,0 0,-10.361266 c -0.006,-0.271039 -0.0969,-0.494257 -0.27227,-0.669656 -0.17539,-0.175373 -0.39861,-0.266132 -0.66966,-0.272277 -0.27105,0.0061 -0.49427,0.0969 -0.66966,0.272277 -0.17538,0.175399 -0.26614,0.398617 -0.27227,0.669656 l 0,11.3032 c 0.006,0.271051 0.0969,0.494269 0.27227,0.669655 0.17539,0.175386 0.39861,0.266145 0.66966,0.272278 z" />
        <path
           inkscape:connector-curvature="0"
           id="path3009"
           style="font-size:19.62386322px;font-variant:normal;font-weight:bold;font-stretch:normal;font-family:Miso;-inkscape-font-specification:Miso Bold"
           d="m 201.91354,78.772199 -1.0793,0 c -0.80538,0.02045 -1.47586,0.298447 -2.01142,0.834003 -0.53556,0.535565 -0.81356,1.206038 -0.834,2.011421 0.0204,0.805387 0.29844,1.47586 0.834,2.011419 0.53556,0.535561 1.20603,0.813562 2.01142,0.834004 l 1.96236,0 c 0.25143,-0.0061 0.45993,-0.09199 0.62551,-0.25756 0.16557,-0.165574 0.25142,-0.374075 0.25756,-0.625502 l 0,-5.847836 c -0.005,-0.586249 -0.16149,-1.106274 -0.46852,-1.560078 -0.30703,-0.453787 -0.73303,-0.7972 -1.27798,-1.030239 -0.53148,-0.222392 -1.06786,-0.277992 -1.60914,-0.166801 -0.54129,0.11121 -1.01879,0.369587 -1.43252,0.775133 -0.17989,0.179891 -0.27147,0.389209 -0.27473,0.627956 0.003,0.238761 0.0948,0.44808 0.27473,0.627955 0.17334,0.173349 0.37611,0.258384 0.60833,0.255107 0.12673,4.16e-4 0.2412,-0.02003 0.34341,-0.06132 0.10221,-0.04128 0.19705,-0.105879 0.28454,-0.193783 0.15168,-0.156981 0.3291,-0.255099 0.53229,-0.294354 0.20319,-0.03924 0.40515,-0.01962 0.60588,0.05887 0.19869,0.083 0.35568,0.21137 0.47097,0.385114 0.11528,0.173757 0.17415,0.365905 0.17661,0.576443 z m -1.0793,1.766125 1.0793,0 0,2.158597 -1.0793,0 c -0.31112,-0.0069 -0.56704,-0.11079 -0.76777,-0.311525 -0.20074,-0.200731 -0.30458,-0.456655 -0.31153,-0.767773 0.007,-0.311114 0.11079,-0.567038 0.31153,-0.767774 0.20073,-0.20073 0.45665,-0.304572 0.76777,-0.311525 z" />
        <path
           inkscape:connector-curvature="0"
           id="path3011"
           style="font-size:19.62386322px;font-variant:normal;font-weight:bold;font-stretch:normal;font-family:Miso;-inkscape-font-specification:Miso Bold"
           d="m 206.55584,84.463046 1.96237,0 c 0.80538,-0.02044 1.47585,-0.298442 2.01141,-0.834004 0.53556,-0.53556 0.81356,-1.206032 0.83401,-2.011419 l 0,-3.767734 c -0.0205,-0.805378 -0.29845,-1.475851 -0.83401,-2.01142 -0.53556,-0.535552 -1.20603,-0.813553 -2.01141,-0.834003 l -1.0793,0 0,-3.120154 c -0.006,-0.251415 -0.092,-0.459916 -0.25756,-0.625503 -0.16558,-0.165561 -0.37408,-0.251414 -0.62551,-0.25756 -0.25143,0.0061 -0.45993,0.092 -0.6255,0.25756 -0.16557,0.165587 -0.25143,0.374088 -0.25756,0.625503 l 0,11.695672 c 0.006,0.251428 0.092,0.459928 0.25756,0.625502 0.16557,0.165574 0.37407,0.251427 0.6255,0.25756 z m 0.88307,-7.692455 1.0793,0 c 0.31111,0.007 0.56703,0.110799 0.76777,0.311525 0.20073,0.20074 0.30457,0.456664 0.31152,0.767773 l 0,3.767734 c -0.007,0.311118 -0.11079,0.567042 -0.31152,0.767773 -0.20074,0.200735 -0.45666,0.304576 -0.76777,0.311525 l -1.0793,0 z" />
        <path
           inkscape:connector-curvature="0"
           id="path3013"
           style="font-size:19.62386322px;font-variant:normal;font-weight:bold;font-stretch:normal;font-family:Miso;-inkscape-font-specification:Miso Bold"
           d="m 215.90996,84.541541 c 0.80539,-0.02044 1.47586,-0.298443 2.01142,-0.834004 0.53556,-0.53556 0.81356,-1.206033 0.83401,-2.01142 l 0,-3.924722 c -0.0205,-0.805379 -0.29845,-1.475851 -0.83401,-2.01142 -0.53556,-0.535553 -1.20603,-0.813554 -2.01142,-0.834004 -0.80538,0.02045 -1.47586,0.298452 -2.01142,0.834004 -0.53556,0.535568 -0.81356,1.206041 -0.834,2.01142 l 0,3.924722 c 0.0204,0.805387 0.29844,1.47586 0.834,2.01142 0.53556,0.535561 1.20604,0.813562 2.01142,0.834004 z m 0,-7.849445 c 0.31112,0.007 0.56704,0.1108 0.76778,0.311525 0.20073,0.20074 0.30457,0.456665 0.31152,0.767774 l 0,3.924722 c -0.007,0.311118 -0.11079,0.567042 -0.31152,0.767774 -0.20074,0.200734 -0.45666,0.304576 -0.76778,0.311525 -0.31111,-0.0069 -0.56704,-0.11079 -0.76777,-0.311525 -0.20074,-0.200731 -0.30458,-0.456656 -0.31152,-0.767774 l 0,-3.924722 c 0.007,-0.311109 0.11079,-0.567034 0.31152,-0.767774 0.20073,-0.200726 0.45666,-0.304567 0.76777,-0.311525 z" />
        <path
           inkscape:connector-curvature="0"
           id="path3015"
           style="font-size:19.62386322px;font-variant:normal;font-weight:bold;font-stretch:normal;font-family:Miso;-inkscape-font-specification:Miso Bold"
           d="m 221.58036,84.541541 c 0.25143,-0.0061 0.45993,-0.09199 0.62551,-0.257561 0.16557,-0.165574 0.25142,-0.374075 0.25756,-0.625502 l 0,-6.887887 1.0793,0 c 0.1766,-0.0033 0.35322,0.04252 0.52983,0.137365 0.23221,0.12429 0.45952,0.155361 0.68192,0.09321 0.2224,-0.06213 0.40065,-0.197864 0.53475,-0.40719 0.11732,-0.232205 0.14758,-0.459512 0.0908,-0.681921 -0.0568,-0.222392 -0.19829,-0.400639 -0.42436,-0.534743 -0.45135,-0.251827 -0.92232,-0.37611 -1.4129,-0.372848 l -1.96237,0 c -0.25142,0.0061 -0.45993,0.092 -0.6255,0.25756 -0.16557,0.165583 -0.25143,0.374083 -0.25756,0.625502 l 0,7.77095 c 0.006,0.251428 0.092,0.459928 0.25756,0.625502 0.16558,0.165574 0.37408,0.251428 0.6255,0.257561 z" />
      </g>
      <path
         d="m 118.331,111.925 c -0.49,0 -0.986,-0.046 -1.49,-0.14 -3.387,-0.63 -6.553,-3.966 -8.469,-8.925 -2.108,-5.46 1.113,-12.314 2.326,-14.896 0.883,-1.879 1.947,-3.602 3.073,-5.425 0.706,-1.142 1.435,-2.323 2.161,-3.607 0.396,-0.701 0.802,-1.362 1.194,-2.002 0.526,-0.857 1.032,-1.68 1.474,-2.533 -1.482,-1.431 -2.995,-2.602 -6.227,-3.292 -0.018,0.036 -0.037,0.072 -0.055,0.108 -0.345,0.681 -0.702,1.385 -1.05,2.106 -1.188,2.459 -2.746,5.313 -6.202,8.078 -1.508,1.207 -4.302,2.237 -6.724,1.868 -1.538,-0.234 -2.779,-0.991 -3.589,-2.189 -1.069,-1.581 -2.167,-4.872 2.491,-9.15 l 0.064,-0.059 c 2.869,-2.657 4.799,-3.468 6.685,-4.125 2.341,-0.816 3.943,-1.053 6.189,-0.84 1.01,-2.158 1.849,-4.392 2.364,-7.436 0.729,-4.3 0.96,-10.311 -2.07,-14.522 -2.174,-3.021 -6.877,-4.552 -10.207,-4.457 -4.799,0.135 -7.726,0.989 -12.104,2.37 -1.552,0.49 -2.822,0.98 -3.965,1.67 0.16,0.282 0.298,0.56 0.413,0.833 1.92,4.573 2.401,10.56 2.212,14.64 -0.152,3.286 -1.197,6.286 -2.09,8.533 -1.52,3.822 -3.928,5.761 -7.159,5.761 -1.745,0 -4.134,-1.243 -5.325,-3.619 -1.353,-2.694 -1.127,-8.305 -1.125,-8.361 0.134,-3.123 0.584,-5.307 1.721,-8.347 1.393,-3.724 1.896,-4.479 4.334,-7.869 0.587,-0.816 1.167,-1.529 1.752,-2.157 -1.665,-1.713 -3.842,-3.385 -5.243,-4.09 -4.036,-2.03 -11.797,-1.865 -15.1,1.22 -0.807,0.754 -1.51,1.671 -2.253,2.642 -0.422,0.551 -0.858,1.121 -1.326,1.674 -0.296,0.351 -0.597,0.698 -0.897,1.046 -1.005,1.163 -1.955,2.261 -2.746,3.46 -1.5,2.271 -3.082,4.52 -4.612,6.694 l -0.746,1.061 c -0.326,0.464 -0.647,0.931 -0.969,1.397 -1.356,1.97 -2.759,4.006 -4.481,5.824 -1.347,1.422 -3.185,2.462 -5.313,3.009 -3.833,0.984 -7.906,0.398 -11.025,-0.223 -1.553,-0.31 -3.202,-0.712 -5.188,-1.266 l 1.028,-3.683 c 1.89,0.526 3.449,0.907 4.906,1.197 2.891,0.575 6.259,1.059 9.328,0.271 1.431,-0.368 2.637,-1.037 3.489,-1.936 1.518,-1.603 2.776,-3.429 4.108,-5.363 0.329,-0.477 0.657,-0.953 0.989,-1.426 l 0.747,-1.063 c 1.514,-2.152 3.08,-4.377 4.548,-6.601 0.927,-1.405 2.003,-2.65 3.044,-3.854 0.291,-0.337 0.583,-0.674 0.87,-1.014 0.409,-0.483 0.798,-0.992 1.211,-1.531 0.806,-1.052 1.639,-2.139 2.679,-3.11 4.55,-4.25 14.18,-4.481 19.427,-1.842 1.77,0.89 4.394,2.869 6.448,5.042 1.526,-0.979 3.19,-1.644 5.158,-2.265 4.71,-1.486 7.946,-2.399 13.146,-2.545 4.418,-0.127 10.444,1.913 13.418,6.046 3.802,5.283 3.587,12.375 2.736,17.394 -0.512,3.026 -1.312,5.355 -2.239,7.469 2.749,0.704 4.585,1.782 6.282,3.251 0.985,-1.788 2.085,-3.447 3.158,-5.068 0.947,-1.43 1.927,-2.908 2.796,-4.432 0.737,-1.294 1.499,-2.589 2.292,-3.927 -2.146,-2.344 -4.099,-5.064 -5.39,-8.098 -3.313,-7.784 -4.515,-16.314 -3.386,-24.021 0.602,-4.105 1.367,-8.384 2.892,-11.868 2.564,-5.861 5.097,-9.066 7.74,-9.797 4.457,-1.232 8.668,0.266 11.856,4.219 3.414,4.233 2.805,12.874 1.893,19.93 -0.402,3.116 -2.355,12.745 -3.73,15.888 -1.901,4.347 -4.498,8.809 -7.077,13.157 2.285,2.165 4.976,4.212 7.935,6 3.289,1.986 12.246,1.907 17.218,0.975 4.43,-0.83 13.221,-3.524 16.396,-4.776 0.546,-0.215 1.07,-0.429 1.583,-0.639 3.056,-1.247 5.941,-2.424 10.571,-2.721 6.711,-0.43 9.477,1.867 11.915,3.894 0.166,0.138 0.333,0.276 0.501,0.414 1.938,1.589 7.32,4.202 9.587,3.604 2.177,-0.575 4.373,-2.442 6.499,-4.248 3.373,-2.867 6.86,-5.833 11.064,-4.443 l -1.198,3.631 c -2.021,-0.667 -4.139,0.963 -7.391,3.726 -2.449,2.083 -4.982,4.235 -7.997,5.032 -4.424,1.169 -11.407,-3.047 -12.988,-4.345 -0.175,-0.144 -0.349,-0.287 -0.521,-0.43 -2.254,-1.873 -4.033,-3.351 -9.228,-3.02 -4.007,0.257 -6.374,1.223 -9.37,2.445 -0.526,0.216 -1.065,0.436 -1.626,0.656 -3.383,1.334 -12.387,4.095 -17.093,4.978 -4.181,0.783 -14.995,1.503 -19.9,-1.461 -1.799,-1.087 -4.869,-3.109 -7.955,-5.905 -0.609,1.032 -1.198,2.041 -1.771,3.044 -0.932,1.635 -1.947,3.168 -2.929,4.65 -1.274,1.923 -2.491,3.759 -3.502,5.752 1.198,1.29 2.311,2.675 3.125,4.184 1.57,2.909 2.149,4.083 2.857,7.371 1.192,5.539 0.533,13.428 -1.566,18.759 -2.009,5.103 -5.41,7.989 -9.286,7.989 l 0,0 z m 3.03,-34.617 c -0.321,0.557 -0.651,1.094 -0.977,1.624 -0.375,0.61 -0.763,1.241 -1.123,1.88 -0.763,1.351 -1.512,2.564 -2.237,3.738 -1.067,1.729 -2.076,3.359 -2.866,5.042 -1.022,2.176 -3.739,7.956 -2.219,11.891 1.37,3.546 3.62,6.175 5.601,6.543 3.769,0.699 5.943,-4.026 6.521,-5.491 1.825,-4.632 2.421,-11.748 1.387,-16.553 -0.604,-2.808 -1.014,-3.636 -2.483,-6.359 -0.434,-0.803 -0.99,-1.577 -1.604,-2.315 l 0,0 z m -13.049,-6.642 c -0.962,0.05 -1.854,0.267 -3.061,0.688 -1.601,0.558 -3.01,1.156 -5.345,3.319 l -0.076,0.069 c -1.335,1.227 -2.75,2.949 -1.91,4.193 0.129,0.19 0.373,0.455 0.996,0.55 1.216,0.187 2.926,-0.406 3.76,-1.074 2.832,-2.266 4.096,-4.58 5.148,-6.756 0.164,-0.335 0.326,-0.665 0.488,-0.989 l 0,0 z M 81.209,47.14 c -0.305,0.362 -0.612,0.757 -0.923,1.19 -2.253,3.132 -2.599,3.613 -3.857,6.976 -1.004,2.686 -1.364,4.429 -1.482,7.172 -0.082,1.897 0.128,5.298 0.722,6.482 0.524,1.045 1.59,1.51 1.907,1.51 1.059,0 2.425,-0.381 3.605,-3.351 0.783,-1.969 1.697,-4.579 1.823,-7.298 0.159,-3.408 -0.222,-8.72 -1.795,-12.681 l 0,0 z M 133.513,7.009 c -0.655,0 -1.332,0.097 -2.033,0.291 -0.362,0.1 -2.322,0.94 -5.255,7.644 -1.344,3.07 -2.05,7.048 -2.611,10.89 -1.028,7.021 0.079,14.824 3.12,21.97 0.858,2.017 2.202,4.094 3.93,6.125 2.335,-3.951 4.634,-7.972 6.313,-11.811 1.116,-2.552 3.041,-11.751 3.441,-14.846 1.161,-8.98 0.799,-14.713 -1.077,-17.039 -1.74,-2.157 -3.661,-3.224 -5.828,-3.224 l 0,0 z"
         id="Kabel"
         inkscape:connector-curvature="0" />
      <polygon
         points="21.06,62.142 12.5,54.945 12.91,53.932 8.622,52.199 7.779,54.285 4.559,52.984 4.06,54.22 7.28,55.521 4.808,61.638 1.588,60.337 1.089,61.572 4.309,62.874 3.287,65.403 7.575,67.136 7.984,66.122 19.138,66.9 19.029,67.169 20.1,67.603 22.244,62.295 21.173,61.862 21.066,62.126 "
         id="Stecker" />
    </g>
    <flowRoot
       xml:space="preserve"
       id="flowRoot3135"
       style="font-size:18px;font-style:normal;font-variant:normal;font-weight:normal;font-stretch:normal;line-height:125%;letter-spacing:0px;word-spacing:0px;fill:#000000;fill-opacity:1;stroke:none;font-family:DejaVu Sans;-inkscape-font-specification:DejaVu Sans"
       transform="translate(0,344)"><flowRegion
         id="flowRegion3137"><rect
           id="rect3139"
           width="247.99245"
           height="91.418808"
           x="3.0304577"
           y="123.52692"
           style="font-size:18px" /></flowRegion><flowPara
         id="flowPara3141"></flowPara></flowRoot>    <flowRoot
       xml:space="preserve"
       id="flowRoot3145"
       style="font-size:40px;font-style:normal;font-variant:normal;font-weight:normal;font-stretch:normal;line-height:125%;letter-spacing:0px;word-spacing:0px;fill:#000000;fill-opacity:1;stroke:none;font-family:DejaVu Sans;-inkscape-font-specification:DejaVu Sans"
       transform="translate(-2,340)"><flowRegion
         id="flowRegion3147"><rect
           id="rect3149"
           width="246.98228"
           height="22.728468"
           x="7.5761437"
           y="133.12337" /></flowRegion><flowPara
         id="flowPara3151"
         style="font-size:14px;font-style:normal;font-variant:normal;font-weight:bold;font-stretch:normal;font-family:DejaVu Sans Mono;-inkscape-font-specification:DejaVu Sans Mono Bold">Spenden Einzugsermächtigung</flowPara></flowRoot>    <flowRoot
       xml:space="preserve"
       id="flowRoot3145-2"
       style="font-size:40px;font-style:normal;font-variant:normal;font-weight:normal;font-stretch:normal;line-height:125%;letter-spacing:0px;word-spacing:0px;fill:#000000;fill-opacity:1;stroke:none;font-family:DejaVu Sans;-inkscape-font-specification:DejaVu Sans"
       transform="translate(-1.0625,365.16)"><flowRegion
         id="flowRegion3147-7"><rect
           id="rect3149-0"
           width="243.44675"
           height="138.89601"
           x="7.5761437"
           y="133.12337" /></flowRegion><flowPara
         style="font-size:11px;font-style:normal;font-variant:normal;font-weight:normal;font-stretch:normal;font-family:DejaVu Sans Mono;-inkscape-font-specification:DejaVu Sans Mono"
         id="flowPara4783">Hiermit ermächtige ich den RaumZeitLabor e.V. meine Spende in Höhe von:</flowPara></flowRoot>    <g
       id="g4404"
       transform="translate(0,58)">
      <rect
         style="fill:none;stroke:#000000;stroke-width:1.53846157;stroke-miterlimit:4;stroke-opacity:1;stroke-dasharray:none"
         y="811.13147"
         x="9.2692299"
         height="18.461538"
         width="18.461538"
         id="rect3480" />
      <flowRoot
         transform="translate(-13.0625,653.90938)"
         style="font-size:40px;font-style:normal;font-variant:normal;font-weight:normal;font-stretch:normal;line-height:125%;letter-spacing:0px;word-spacing:0px;fill:#000000;fill-opacity:1;stroke:none;font-family:DejaVu Sans;-inkscape-font-specification:DejaVu Sans"
         id="flowRoot3145-2-8"
         xml:space="preserve"><flowRegion
           id="flowRegion3147-7-9"><rect
             y="153.8315"
             x="46.972092"
             height="70.205681"
             width="211.12181"
             id="rect3149-0-7" /></flowRegion><flowPara
           id="flowPara3186-7"
           style="font-size:10px;font-style:normal;font-variant:normal;font-weight:normal;font-stretch:normal;font-family:DejaVu Sans Mono;-inkscape-font-specification:DejaVu Sans Mono">Ich wünsche eine Spendenquittung und hole diese im RaumZeitLabor ab.</flowPara></flowRoot>    </g>
    <g
       id="g4411"
       transform="translate(-4.1965638,58)">
      <rect
         style="fill:none;stroke:#000000;stroke-width:1.53846157;stroke-miterlimit:4;stroke-opacity:1;stroke-dasharray:none"
         y="843.13147"
         x="13.465795"
         height="18.461538"
         width="18.461538"
         id="rect3480-2" />
      <flowRoot
         transform="translate(-10.421775,685.40938)"
         style="font-size:40px;font-style:normal;font-variant:normal;font-weight:normal;font-stretch:normal;line-height:125%;letter-spacing:0px;word-spacing:0px;fill:#000000;fill-opacity:1;stroke:none;font-family:DejaVu Sans;-inkscape-font-specification:DejaVu Sans"
         id="flowRoot3145-2-8-0"
         xml:space="preserve"><flowRegion
           id="flowRegion3147-7-9-4"><rect
             y="153.8315"
             x="46.972092"
             height="259.10422"
             width="220.71828"
             id="rect3149-0-7-9" /></flowRegion><flowPara
           id="flowPara3186-7-0"
           style="font-size:10px;font-style:normal;font-variant:normal;font-weight:normal;font-stretch:normal;font-family:DejaVu Sans Mono;-inkscape-font-specification:DejaVu Sans Mono">Ich wünsche eine Spendenquittung und möchte diese per Post erhalten. </flowPara><flowPara
           style="font-size:10px;font-style:normal;font-variant:normal;font-weight:normal;font-stretch:normal;font-family:DejaVu Sans Mono;-inkscape-font-specification:DejaVu Sans Mono"
           id="flowPara4547">Die Anschrift lautet: </flowPara></flowRoot>    </g>
    <flowRoot
       xml:space="preserve"
       id="flowRoot3145-2-83"
       style="font-size:40px;font-style:normal;font-variant:normal;font-weight:normal;font-stretch:normal;line-height:125%;letter-spacing:0px;word-spacing:0px;fill:#000000;fill-opacity:1;stroke:none;font-family:DejaVu Sans;-inkscape-font-specification:DejaVu Sans"
       transform="translate(-1.0625,413.56499)"><flowRegion
         id="flowRegion3147-7-4"><rect
           id="rect3149-0-6"
           width="243.44675"
           height="138.89601"
           x="7.5761437"
           y="133.12337" /></flowRegion><flowPara
         style="font-size:12px;font-style:normal;font-variant:normal;font-weight:normal;font-stretch:normal;font-family:DejaVu Sans Mono;-inkscape-font-specification:DejaVu Sans Mono"
         id="flowPara4783-3"><flowSpan
           style="font-weight:bold;-inkscape-font-specification:DejaVu Sans Mono Bold"
           id="flowSpan3443-6">__ __ __ __ , __ __ </flowSpan><flowSpan
           style="font-size:18px;font-weight:bold;-inkscape-font-specification:DejaVu Sans Mono Bold"
           id="flowSpan3188-5">€</flowSpan></flowPara></flowRoot>    <flowRoot
       xml:space="preserve"
       id="flowRoot3145-2-3"
       style="font-size:40px;font-style:normal;font-variant:normal;font-weight:normal;font-stretch:normal;line-height:125%;letter-spacing:0px;word-spacing:0px;fill:#000000;fill-opacity:1;stroke:none;font-family:DejaVu Sans;-inkscape-font-specification:DejaVu Sans"
       transform="translate(-1.7231445,445.58785)"><flowRegion
         id="flowRegion3147-7-0"><rect
           id="rect3149-0-0"
           width="243.44675"
           height="138.89601"
           x="7.5761437"
           y="133.12337" /></flowRegion><flowPara
         style="font-size:11px;font-style:normal;font-variant:normal;font-weight:normal;font-stretch:normal;font-family:DejaVu Sans Mono;-inkscape-font-specification:DejaVu Sans Mono"
         id="flowPara4783-5">durch Lastschrift von dem unten genannten Konto einzuziehen.</flowPara></flowRoot>    <g
       id="g5100"
       transform="translate(0,16)">
      <g
         id="g5167">
        <flowRoot
           xml:space="preserve"
           id="flowRoot3145-2-7"
           style="font-size:40px;font-style:normal;font-variant:normal;font-weight:normal;font-stretch:normal;line-height:125%;letter-spacing:0px;word-spacing:0px;fill:#000000;fill-opacity:1;stroke:none;font-family:DejaVu Sans;-inkscape-font-specification:DejaVu Sans"
           transform="translate(-1.0625,470.32739)"><flowRegion
             id="flowRegion3147-7-7"><rect
               id="rect3149-0-2"
               width="250.51782"
               height="296.4798"
               x="7.5761437"
               y="133.12337" /></flowRegion><flowPara
             style="font-size:12px;font-style:normal;font-variant:normal;font-weight:normal;font-stretch:normal;font-family:DejaVu Sans Mono;-inkscape-font-specification:DejaVu Sans Mono"
             id="flowPara3186-1" /><flowPara
             style="font-size:11px;font-style:normal;font-variant:normal;font-weight:normal;font-stretch:normal;font-family:DejaVu Sans Mono;-inkscape-font-specification:DejaVu Sans Mono"
             id="flowPara3309" /><flowPara
             style="font-size:11px;font-style:normal;font-variant:normal;font-weight:normal;font-stretch:normal;font-family:DejaVu Sans Mono;-inkscape-font-specification:DejaVu Sans Mono;line-height:135%"
             id="flowPara3311">Kontonummer</flowPara><flowPara
             style="font-size:11px;font-style:normal;font-variant:normal;font-weight:normal;font-stretch:normal;font-family:DejaVu Sans Mono;-inkscape-font-specification:DejaVu Sans Mono;line-height:135%"
             id="flowPara4960" /><flowPara
             style="font-size:11px;font-style:normal;font-variant:normal;font-weight:normal;font-stretch:normal;font-family:DejaVu Sans Mono;-inkscape-font-specification:DejaVu Sans Mono;line-height:135%"
             id="flowPara4964" /><flowPara
             style="font-size:11px;font-style:normal;font-variant:normal;font-weight:normal;font-stretch:normal;font-family:DejaVu Sans Mono;-inkscape-font-specification:DejaVu Sans Mono;line-height:135%"
             id="flowPara3305">Bankleitzahl </flowPara><flowPara
             style="font-size:11px;font-style:normal;font-variant:normal;font-weight:normal;font-stretch:normal;font-family:DejaVu Sans Mono;-inkscape-font-specification:DejaVu Sans Mono;line-height:135%"
             id="flowPara4966" /><flowPara
             style="font-size:11px;font-style:normal;font-variant:normal;font-weight:normal;font-stretch:normal;font-family:DejaVu Sans Mono;-inkscape-font-specification:DejaVu Sans Mono;line-height:135%"
             id="flowPara4968" /><flowPara
             style="font-size:11px;font-style:normal;font-variant:normal;font-weight:normal;font-stretch:normal;font-family:DejaVu Sans Mono;-inkscape-font-specification:DejaVu Sans Mono;line-height:135%"
             id="flowPara4978">Kontoinhaber</flowPara><flowPara
             style="font-size:11px;font-style:normal;font-variant:normal;font-weight:normal;font-stretch:normal;font-family:DejaVu Sans Mono;-inkscape-font-specification:DejaVu Sans Mono;line-height:135%"
             id="flowPara4992" /><flowPara
             style="font-size:11px;font-style:normal;font-variant:normal;font-weight:normal;font-stretch:normal;font-family:DejaVu Sans Mono;-inkscape-font-specification:DejaVu Sans Mono;line-height:135%"
             id="flowPara3343" /><flowPara
             style="font-size:11px;font-style:normal;font-variant:normal;font-weight:normal;font-stretch:normal;font-family:DejaVu Sans Mono;-inkscape-font-specification:DejaVu Sans Mono;line-height:135%"
             id="flowPara3331">Ort, Datum</flowPara><flowPara
             style="font-size:11px;font-style:normal;font-variant:normal;font-weight:normal;font-stretch:normal;font-family:DejaVu Sans Mono;-inkscape-font-specification:DejaVu Sans Mono;line-height:135%"
             id="flowPara4990" /><flowPara
             style="font-size:11px;font-style:normal;font-variant:normal;font-weight:normal;font-stretch:normal;font-family:DejaVu Sans Mono;-inkscape-font-specification:DejaVu Sans Mono;line-height:135%"
             id="flowPara3347" /><flowPara
             style="font-size:11px;font-style:normal;font-variant:normal;font-weight:normal;font-stretch:normal;font-family:DejaVu Sans Mono;-inkscape-font-specification:DejaVu Sans Mono;line-height:135%"
             id="flowPara3406">Unterschrift des Kontoinhabers</flowPara><flowPara
             style="font-size:11px;font-style:normal;font-variant:normal;font-weight:bold;font-stretch:normal;font-family:DejaVu Sans Mono;-inkscape-font-specification:DejaVu Sans Mono Bold"
             id="flowPara3429" /><flowPara
             style="font-size:11px;font-style:normal;font-variant:normal;font-weight:bold;font-stretch:normal;font-family:DejaVu Sans Mono;-inkscape-font-specification:DejaVu Sans Mono Bold"
             id="flowPara3431" /><flowPara
             style="font-size:11px;font-style:normal;font-variant:normal;font-weight:bold;font-stretch:normal;font-family:DejaVu Sans Mono;-inkscape-font-specification:DejaVu Sans Mono Bold"
             id="flowPara3470" /><flowPara
             style="font-size:11px;font-style:normal;font-variant:normal;font-weight:bold;font-stretch:normal;font-family:DejaVu Sans Mono;-inkscape-font-specification:DejaVu Sans Mono Bold"
             id="flowPara3478" /><flowPara
             style="font-size:11px;font-style:normal;font-variant:normal;font-weight:bold;font-stretch:normal;font-family:DejaVu Sans Mono;-inkscape-font-specification:DejaVu Sans Mono Bold"
             id="flowPara3464" /><flowPara
             style="font-size:11px;font-style:normal;font-variant:normal;font-weight:bold;font-stretch:normal;font-family:DejaVu Sans Mono;-inkscape-font-specification:DejaVu Sans Mono Bold"
             id="flowPara3466" /><flowPara
             style="font-size:11px;font-style:normal;font-variant:normal;font-weight:bold;font-stretch:normal;font-family:DejaVu Sans Mono;-inkscape-font-specification:DejaVu Sans Mono Bold"
             id="flowPara3468" /><flowPara
             style="font-size:11px;font-style:normal;font-variant:normal;font-weight:bold;font-stretch:normal;font-family:DejaVu Sans Mono;-inkscape-font-specification:DejaVu Sans Mono Bold"
             id="flowPara3408" /><flowPara
             style="font-size:11px;font-style:normal;font-variant:normal;font-weight:bold;font-stretch:normal;font-family:DejaVu Sans Mono;-inkscape-font-specification:DejaVu Sans Mono Bold"
             id="flowPara3327" /><flowPara
             style="font-size:11px;font-style:normal;font-variant:normal;font-weight:bold;font-stretch:normal;font-family:DejaVu Sans Mono;-inkscape-font-specification:DejaVu Sans Mono Bold"
             id="flowPara3410" /></flowRoot>        <path
           style="fill:none;stroke:#000000;stroke-width:1px;stroke-linecap:butt;stroke-linejoin:miter;stroke-opacity:1"
           d="m 7,635.18953 248.49752,0 z"
           id="path4994"
           inkscape:connector-curvature="0" />
        <path
           style="fill:none;stroke:#000000;stroke-width:1px;stroke-linecap:butt;stroke-linejoin:miter;stroke-opacity:1"
           d="m 7,679.77583 248.49752,0 z"
           id="path4994-3"
           inkscape:connector-curvature="0" />
        <path
           style="fill:none;stroke:#000000;stroke-width:1px;stroke-linecap:butt;stroke-linejoin:miter;stroke-opacity:1"
           d="m 7,724.22254 248.49752,0 z"
           id="path4994-3-8"
           inkscape:connector-curvature="0" />
        <path
           style="fill:none;stroke:#000000;stroke-width:1px;stroke-linecap:butt;stroke-linejoin:miter;stroke-opacity:1"
           d="m 7,768.12356 248.49752,0 z"
           id="path4994-3-8-4"
           inkscape:connector-curvature="0" />
        <flowRoot
           xml:space="preserve"
           id="flowRoot5201"
           style="fill:black;stroke:none;stroke-opacity:1;stroke-width:1px;stroke-linejoin:miter;stroke-linecap:butt;fill-opacity:1;font-family:DejaVu Sans;font-style:normal;font-weight:normal;font-size:40px;line-height:125%;letter-spacing:0px;word-spacing:0px;-inkscape-font-specification:DejaVu Sans;font-stretch:normal;font-variant:normal"><flowRegion
             id="flowRegion5203"><rect
               id="rect5205"
               width="267.69043"
               height="199.00005"
               x="-49.497475"
               y="300.55975" /></flowRegion><flowPara
             id="flowPara5207"></flowPara></flowRoot>      </g>
      <path
         inkscape:connector-curvature="0"
         id="path4994-3-8-4-0"
         d="m 7,813.46115 248.49752,0 z"
         style="fill:none;stroke:#000000;stroke-width:1px;stroke-linecap:butt;stroke-linejoin:miter;stroke-opacity:1" />
      <path
         inkscape:connector-curvature="0"
         id="path4994-3-8-4-0-1"
         d="m 7.576147,952.03479 248.497523,0 z"
         style="fill:none;stroke:#000000;stroke-width:1px;stroke-linecap:butt;stroke-linejoin:miter;stroke-opacity:1" />
      <path
         inkscape:connector-curvature="0"
         id="path4994-3-8-4-0-6"
         d="m 7,1030.4003 248.49752,0 z"
         style="fill:none;stroke:#000000;stroke-width:1px;stroke-linecap:butt;stroke-linejoin:miter;stroke-opacity:1" />
      <path
         inkscape:connector-curvature="0"
         id="path4994-3-8-4-0-61"
         d="m 7,991.18708 248.49752,0 z"
         style="fill:none;stroke:#000000;stroke-width:1px;stroke-linecap:butt;stroke-linejoin:miter;stroke-opacity:1" />
    </g>
    <flowRoot
       xml:space="preserve"
       id="flowRoot5228"
       style="fill:black;stroke:none;stroke-opacity:1;stroke-width:1px;stroke-linejoin:miter;stroke-linecap:butt;fill-opacity:1;font-family:DejaVu Sans;font-style:normal;font-weight:normal;font-size:40px;line-height:125%;letter-spacing:0px;word-spacing:0px;-inkscape-font-specification:DejaVu Sans;font-stretch:normal;font-variant:normal"><flowRegion
         id="flowRegion5230"><rect
           id="rect5232"
           width="258.09396"
           height="80.307129"
           x="7.5761442"
           y="288.94299" /></flowRegion><flowPara
         id="flowPara5234"></flowPara></flowRoot>    <flowRoot
       xml:space="preserve"
       id="flowRoot5236"
       style="font-size:40px;font-style:normal;font-variant:normal;font-weight:normal;font-stretch:normal;line-height:125%;letter-spacing:0px;word-spacing:0px;fill:#000000;fill-opacity:1;stroke:none;font-family:DejaVu Sans;-inkscape-font-specification:DejaVu Sans"
       transform="translate(87.421875,288.64754)"><flowRegion
         id="flowRegion5238"><rect
           id="rect5240"
           width="390.92905"
           height="143.44167"
           x="-82.832512"
           y="338.44046" /></flowRegion><flowPara
         id="flowPara5242"
         style="font-size:16px;font-style:normal;font-variant:normal;font-weight:normal;font-stretch:normal;font-family:DejaVu Sans Mono;-inkscape-font-specification:DejaVu Sans Mono">##account##</flowPara></flowRoot>    <flowRoot
       xml:space="preserve"
       id="flowRoot5236-5"
       style="font-size:40px;font-style:normal;font-variant:normal;font-weight:normal;font-stretch:normal;line-height:125%;letter-spacing:0px;word-spacing:0px;fill:#000000;fill-opacity:1;stroke:none;font-family:DejaVu Sans;-inkscape-font-specification:DejaVu Sans"
       transform="translate(88.273437,334.14349)"><flowRegion
         id="flowRegion5238-9"><rect
           id="rect5240-6"
           width="390.92905"
           height="143.44167"
           x="-82.832512"
           y="338.44046" /></flowRegion><flowPara
         id="flowPara5242-8"
         style="font-size:16px;font-style:normal;font-variant:normal;font-weight:normal;font-stretch:normal;font-family:DejaVu Sans Mono;-inkscape-font-specification:DejaVu Sans Mono">##bank##</flowPara></flowRoot>  </g>
</svg>
